# xmcd
#
# Track frame offsets: 
#        150
#        9319
#        23059
#        35480
#        45264
#        58134
#        71076
#        82943
#        98456
#        108863
#        120426
#        131795
#        144628
#        158683
#        169791
#        180927
#        194741
#
# Disc length: 2721 seconds
#
# Revision: 0
# Processed by: cddbd v1.4PL0 Copyright (c) Steve Scherf et al.
# Submitted via: ExactAudioCopy v0.90b3
#
DISCID=d30a9f11
DTITLE=Frankie Laine - Songs of the West
DYEAR=2002
DGENRE=Western
TTITLE0=Rawhide
TTITLE1=Cool Water
TTITLE2=High Noon
TTITLE3=Gunfight At the OK Corral
TTITLE4=That Lucky Old Sun
TTITLE5=The Cry of the Wild Goose
TTITLE6=Wanted Man
TTITLE7=Tumbling Tumbleweeds
TTITLE8=The Hanging Tree
TTITLE9=Mule Train
TTITLE10=Along The Navajo Trail
TTITLE11=Moonlight Gambler
TTITLE12=Dont Fence Me In
TTITLE13=Call of the Wild
TTITLE14=The 3:10 to Yuma
TTITLE15=Riders In The Sky
TTITLE16=Blazing Saddles
EXTD=
EXTT0=
EXTT1=
EXTT2=
EXTT3=
EXTT4=
EXTT5=
EXTT6=
EXTT7=
EXTT8=
EXTT9=
EXTT10=
EXTT11=
EXTT12=
EXTT13=
EXTT14=
EXTT15=
EXTT16=
PLAYORDER=
